<?xml version="1.0" encoding="UTF-8"?>
<svg id="Camada_2" data-name="Camada 2" xmlns="http://www.w3.org/2000/svg" viewBox="0 0 146.82 197.42">
  <defs>
    <style>
      .cls-1 {
        stroke-width: 2.94px;
      }

      .cls-1, .cls-2 {
        fill: none;
        stroke: #9caf88;
        stroke-miterlimit: 10;
      }

      .cls-2 {
        stroke-width: 3.08px;
      }
    </style>
  </defs>
  <g id="Conteudo">
    <g>
      <path class="cls-2" d="M2.16,111.28c4.64-35.2,34.76-62.37,71.23-62.37,33.41,0,61.49,22.81,69.53,53.7"/>
      <path class="cls-2" d="M99.96,186.4c0,1.5-.05,2.98-.13,4.46-8.18,3.24-17.1,5.02-26.44,5.02C33.71,195.88,1.54,163.71,1.54,124.03c0-1.5.05-2.98.13-4.46,8.18-3.24,17.1-5.02,26.44-5.02,39.68,0,71.85,32.17,71.85,71.85Z"/>
      <path class="cls-2" d="M76.17,128.61c16.14-15.82,39.48-23.8,63.4-19.38,1.47.27,2.92.59,4.36.94,1.7,8.64,1.83,17.73.13,26.91-4.37,23.63-19.84,42.41-40.03,51.95"/>
      <path class="cls-2" d="M62.57,41.92h20.32c1.41,0,2.7-.78,3.35-2.03l6.13-11.75c.76-1.46.49-3.25-.68-4.42l-.46-.46c-.71-.71-1.67-1.11-2.67-1.11h-32.5c-1.35,0-2.6.72-3.27,1.89h0c-.65,1.13-.67,2.51-.06,3.66l6.51,12.21c.66,1.23,1.94,2,3.33,2Z"/>
      <path class="cls-1" d="M67.35,1.47h10.38c1.36,0,2.46,1.1,2.46,2.46v12.84h-15.3V3.93c0-1.36,1.1-2.46,2.46-2.46Z"/>
      <circle class="cls-2" cx="72.54" cy="9.12" r="2.32"/>
    </g>
  </g>
</svg>