<svg width="301" height="108" viewBox="0 0 301 108" fill="none" xmlns="http://www.w3.org/2000/svg">
<path d="M0.835938 60.6585C3.38082 41.375 19.8899 26.4922 39.8725 26.4922C58.1786 26.4922 73.5684 38.9866 77.9755 55.9066" stroke="#9CAF88" stroke-miterlimit="10"/>
<path d="M54.4344 101.81C54.4344 102.628 54.4094 103.441 54.3592 104.249C49.8767 106.025 44.9878 106.998 39.8729 106.998C18.1285 106.998 0.5 89.3758 0.5 67.6386C0.5 66.8207 0.525097 66.0078 0.575292 65.2C5.0577 63.4237 9.94669 62.4502 15.0615 62.4502C36.806 62.4502 54.4344 80.0728 54.4344 101.81Z" stroke="#9CAF88" stroke-miterlimit="10"/>
<path d="M41.3936 70.1472C50.2379 61.4764 63.0276 57.1059 76.1385 59.5295C76.9466 59.6801 77.7397 59.8507 78.5278 60.0464C79.4614 64.7782 79.5317 69.7609 78.6031 74.7887C76.2088 87.7347 67.7308 98.0212 56.6679 103.245" stroke="#9CAF88" stroke-miterlimit="10"/>
<path d="M33.9451 22.6585H45.0784C45.8514 22.6585 46.5541 22.232 46.9105 21.5446L50.2685 15.1067C50.6851 14.3039 50.5346 13.3254 49.8971 12.6881L49.6461 12.4372C49.2596 12.0509 48.7326 11.8301 48.1854 11.8301H30.3763C29.6384 11.8301 28.9558 12.2265 28.5843 12.8637C28.2279 13.4809 28.2129 14.2386 28.5492 14.8709L32.113 21.5596C32.4744 22.232 33.1721 22.6535 33.9401 22.6535L33.9451 22.6585Z" stroke="#9CAF88" stroke-miterlimit="10"/>
<path d="M36.5651 0.5H42.2522C42.9951 0.5 43.5974 1.10214 43.5974 1.84478V8.87976H35.2148V1.84478C35.2148 1.10214 35.8172 0.5 36.5601 0.5H36.5651Z" stroke="#9CAF88" stroke-miterlimit="10"/>
<path d="M39.4057 5.95943C40.107 5.95943 40.6756 5.39105 40.6756 4.68992C40.6756 3.98879 40.107 3.42041 39.4057 3.42041C38.7043 3.42041 38.1357 3.98879 38.1357 4.68992C38.1357 5.39105 38.7043 5.95943 39.4057 5.95943Z" stroke="#9CAF88" stroke-miterlimit="10"/>
<path d="M94.2549 38.7305C94.2549 36.7987 94.8271 35.2632 95.9665 34.1242C97.106 32.9851 98.7373 32.4131 100.861 32.4131H109.604C118.504 32.4131 122.956 36.0209 122.956 43.2415C122.956 46.6637 121.927 49.283 119.869 51.0994C117.811 52.9209 114.815 53.8291 110.889 53.8291L119.443 62.5702C119.789 62.9164 119.965 63.3781 119.965 63.9451C119.965 64.5773 119.709 65.0992 119.207 65.5106C118.73 65.892 118.238 66.0827 117.736 66.0827C116.978 66.0827 116.295 65.7364 115.693 65.0389L104.956 53.8793H99.0636V63.8046C99.0636 64.5322 98.8427 65.1042 98.396 65.5156C97.9542 65.9271 97.367 66.1328 96.6391 66.1328C95.9113 66.1328 95.3341 65.9271 94.9074 65.5156C94.4808 65.1042 94.2649 64.5372 94.2649 63.8046V38.7255L94.2549 38.7305ZM109.7 50.0858C112.646 50.0858 114.785 49.564 116.115 48.5203C117.445 47.4766 118.113 45.7203 118.113 43.2466C118.113 40.7728 117.425 38.9463 116.045 37.8574C114.669 36.7635 112.551 36.2166 109.7 36.2166H101.388C100.69 36.2166 100.128 36.4474 99.701 36.904C99.2744 37.3657 99.0585 37.9879 99.0585 38.7807V50.0858H109.7Z" fill="black"/>
<path d="M127.001 65.5457C126.605 65.1493 126.409 64.6024 126.409 63.9049V46.0013C126.409 41.6007 127.659 38.1585 130.164 35.6696C132.663 33.1858 136.117 31.9414 140.519 31.9414C143.43 31.9414 145.96 32.5034 148.098 33.6274C150.237 34.7514 151.868 36.3721 152.992 38.4947C154.117 40.6172 154.679 43.1161 154.679 45.9963V63.8999C154.679 64.5974 154.473 65.1443 154.062 65.5407C153.65 65.9371 153.098 66.1328 152.4 66.1328C151.702 66.1328 151.195 65.9371 150.784 65.5407C150.372 65.1443 150.166 64.5974 150.166 63.8999V54.2105H130.877V63.8999C130.877 64.5974 130.681 65.1443 130.284 65.5407C129.888 65.9371 129.341 66.1328 128.643 66.1328C127.945 66.1328 127.398 65.9371 127.001 65.5407V65.5457ZM150.161 50.6077V45.8608C150.161 42.5691 149.338 40.0452 147.692 38.2839C146.045 36.5277 143.651 35.6496 140.519 35.6496C137.387 35.6496 134.993 36.5126 133.346 38.2388C131.7 39.9649 130.877 42.5039 130.877 45.8608V50.6077H150.166H150.161Z" fill="black"/>
<path d="M161.24 65.546C160.843 65.1496 160.647 64.6026 160.647 63.9052V34.1746C160.647 33.4771 160.843 32.9302 161.24 32.5337C161.636 32.1373 162.168 31.9416 162.831 31.9416C163.494 31.9416 164.081 32.1373 164.492 32.5337C164.904 32.9302 165.11 33.4771 165.11 34.1746V63.9052C165.11 64.6026 164.904 65.1496 164.492 65.546C164.081 65.9424 163.524 66.1381 162.831 66.1381C162.138 66.1381 161.636 65.9424 161.24 65.546ZM161.405 27.1446C161.405 26.9238 161.451 26.703 161.546 26.4772L164.397 19.7333C164.809 18.7197 165.426 18.2129 166.249 18.2129C166.565 18.2129 166.947 18.3082 167.389 18.4989C168.212 18.9405 168.623 19.4824 168.623 20.1146C168.623 20.4308 168.513 20.782 168.292 21.1584L164.538 27.7116C164.156 28.3138 163.634 28.6148 162.971 28.6148C162.751 28.6148 162.51 28.5647 162.259 28.4743C161.687 28.1883 161.405 27.7467 161.405 27.1446Z" fill="black"/>
<path d="M172.523 64.4271C171.524 63.6042 171.027 62.4351 171.027 60.9147C171.027 59.7756 171.258 58.7921 171.715 57.9692C172.172 57.1463 173.005 56.2782 174.21 55.3599L193.5 40.0205C194.037 39.5789 194.418 39.1724 194.639 38.8112C194.86 38.4499 194.97 37.9983 194.97 37.4563C194.97 36.9797 194.83 36.6234 194.544 36.3876C194.258 36.1517 193.786 36.0313 193.118 36.0313H174.4C173.673 36.0313 173.075 35.8707 172.619 35.5546C172.162 35.2385 171.931 34.812 171.931 34.27C171.931 33.6679 172.152 33.2113 172.598 32.8951C173.04 32.579 173.642 32.4185 174.405 32.4185H193.886C195.658 32.4185 197.048 32.8149 198.042 33.6077C199.041 34.4005 199.538 35.5847 199.538 37.1703C199.538 38.3746 199.317 39.3631 198.87 40.1409C198.429 40.9186 197.585 41.7817 196.351 42.7301L177.016 58.0696C176.479 58.5111 176.102 58.9226 175.901 59.3039C175.695 59.6853 175.59 60.1419 175.59 60.6788C175.59 61.5971 176.303 62.0537 177.728 62.0537H197.49C198.188 62.0537 198.765 62.2143 199.222 62.5304C199.679 62.8465 199.909 63.273 199.909 63.815C199.909 64.4171 199.679 64.8737 199.222 65.1898C198.765 65.506 198.183 65.6665 197.49 65.6665H176.679C174.907 65.6665 173.522 65.2551 172.523 64.4322V64.4271Z" fill="black"/>
<path d="M206.108 64.0006C204.939 62.8917 204.352 61.3562 204.352 59.3943V38.5452C204.352 36.6435 204.924 35.1481 206.063 34.0593C207.203 32.9654 208.789 32.4185 210.812 32.4185H225.539C227.025 32.4185 227.773 33.0357 227.773 34.27C227.773 34.8069 227.572 35.2385 227.18 35.5546C226.784 35.8707 226.237 36.0313 225.539 36.0313H211.188C210.46 36.0313 209.883 36.2671 209.456 36.7438C209.03 37.2205 208.814 37.8528 208.814 38.6456V46.8597H221.925C223.411 46.8597 224.158 47.4769 224.158 48.7113C224.158 49.2834 223.958 49.7249 223.566 50.041C223.17 50.3572 222.623 50.5177 221.925 50.5177H208.814V59.4444C208.814 60.2373 209.03 60.8695 209.456 61.3462C209.883 61.8229 210.46 62.0587 211.188 62.0587H226.583C227.311 62.0587 227.868 62.2093 228.244 62.5103C228.626 62.8114 228.817 63.263 228.817 63.8651C228.817 64.4372 228.621 64.8787 228.224 65.1949C227.828 65.511 227.281 65.6716 226.583 65.6716H210.952C208.894 65.6716 207.278 65.1196 206.108 64.0107V64.0006Z" fill="black"/>
<path d="M239.177 64.5924C236.562 63.5637 234.449 62.1286 232.832 60.2921C232.516 59.8806 232.355 59.4842 232.355 59.1029C232.355 58.5007 232.627 57.9789 233.164 57.5373C233.51 57.2513 233.876 57.1108 234.258 57.1108C234.83 57.1108 235.412 57.4119 236.015 58.014C237.375 59.409 239.062 60.4928 241.074 61.2655C243.087 62.0433 245.296 62.4297 247.7 62.4297C250.235 62.4297 252.203 61.963 253.613 61.0297C255.023 60.0964 255.726 58.7918 255.726 57.1108C255.726 55.5603 255.029 54.3008 253.638 53.3374C252.243 52.374 249.853 51.526 246.465 50.7984C241.807 49.7547 238.449 48.44 236.391 46.8544C234.333 45.2738 233.304 43.1813 233.304 40.5871C233.304 38.8459 233.826 37.3255 234.87 36.0259C235.914 34.7263 237.405 33.7227 239.338 33.0102C241.27 32.2977 243.519 31.9414 246.084 31.9414C249 31.9414 251.61 32.4382 253.924 33.4367C256.238 34.4353 257.915 35.7851 258.959 37.4961C259.21 37.8775 259.34 38.2739 259.34 38.6854C259.34 39.3176 259.039 39.8395 258.437 40.2509C258.151 40.4416 257.819 40.5369 257.438 40.5369C257.092 40.5369 256.74 40.4516 256.394 40.276C256.047 40.1004 255.761 39.8746 255.541 39.5886C254.622 38.3241 253.347 37.3506 251.716 36.6682C250.084 35.9858 248.207 35.6446 246.084 35.6446C243.393 35.6446 241.34 36.0661 239.93 36.904C238.519 37.742 237.817 38.9714 237.817 40.5871C237.817 41.5706 238.103 42.4136 238.67 43.1261C239.242 43.8387 240.176 44.4709 241.476 45.0279C242.776 45.5798 244.563 46.1268 246.842 46.6687C251.625 47.7776 255.064 49.1475 257.152 50.7783C259.24 52.4091 260.289 54.5216 260.289 57.1208C260.289 58.9574 259.772 60.548 258.743 61.8928C257.714 63.2376 256.248 64.2863 254.346 65.0289C252.443 65.7716 250.23 66.1429 247.695 66.1429C244.623 66.1429 241.777 65.6311 239.167 64.5974L239.177 64.5924Z" fill="black"/>
<path d="M277.345 65.215C275.864 64.6028 274.73 63.7197 273.947 62.5756C273.164 61.4316 272.772 60.1018 272.772 58.5814C272.772 56.8202 273.325 55.3048 274.434 54.0253C275.543 52.7457 277.119 51.7221 279.172 50.9544C278.183 50.1816 277.421 49.3838 276.878 48.5508C276.336 47.7179 276.065 46.7996 276.065 45.786C276.065 44.0247 276.637 42.6398 277.782 41.6312C278.926 40.6176 280.513 40.1108 282.535 40.1108C284.438 40.1108 285.964 40.6176 287.108 41.6312C288.253 42.6448 288.825 44.0398 288.825 45.8261C288.825 47.0304 288.438 48.1394 287.665 49.153C286.892 50.1666 285.783 51.0196 284.337 51.7221L290.993 58.0094C291.5 57.1413 291.872 56.2783 292.113 55.4252C292.354 54.5722 292.534 53.5636 292.655 52.4045C292.705 51.9479 292.865 51.5866 293.142 51.3206C293.418 51.0547 293.774 50.9242 294.211 50.9242C294.788 50.9242 295.235 51.1099 295.551 51.4862C295.862 51.8576 295.998 52.2891 295.947 52.7708C295.491 55.8818 294.632 58.3757 293.377 60.2524L296.886 63.5792C297.222 63.9154 297.393 64.2666 297.393 64.6279C297.393 64.9892 297.222 65.3404 296.886 65.6766C296.595 65.9677 296.249 66.1082 295.837 66.1082C295.451 66.1082 295.139 65.9877 294.898 65.7469L291.39 62.4552C290.546 63.3484 289.382 64.1863 287.901 64.9691C286.42 65.7519 284.654 66.1433 282.606 66.1433C280.558 66.1433 278.826 65.8372 277.345 65.22V65.215ZM286.441 62.6107C287.62 62.0939 288.574 61.3513 289.297 60.3879L281.486 53.0117C279.704 53.5435 278.354 54.2511 277.436 55.1442C276.517 56.0374 276.06 57.1815 276.06 58.5764C276.06 59.9714 276.653 61.1556 277.832 62.0488C279.012 62.9419 280.593 63.3835 282.571 63.3835C283.966 63.3835 285.256 63.1226 286.441 62.6057V62.6107ZM285.572 45.786C285.572 44.8728 285.296 44.1552 284.739 43.6333C284.182 43.1165 283.424 42.8556 282.46 42.8556C281.496 42.8556 280.708 43.1165 280.161 43.6333C279.619 44.1502 279.348 44.8577 279.348 45.7459C279.348 46.5186 279.579 47.196 280.036 47.7881C280.492 48.3802 281.205 49.0476 282.169 49.7952C284.433 48.7616 285.567 47.4218 285.567 45.781L285.572 45.786Z" fill="black"/>
<path d="M94.7564 106.406C94.3598 106.01 94.1641 105.463 94.1641 104.765V86.8617C94.1641 82.4611 95.4139 79.0188 97.9186 76.53C100.418 74.0462 103.872 72.8018 108.274 72.8018C111.19 72.8018 113.715 73.3638 115.853 74.4877C117.992 75.6117 119.623 77.2325 120.747 79.355C121.872 81.4776 122.434 83.9764 122.434 86.8567V104.76C122.434 105.458 122.228 106.005 121.816 106.401C121.405 106.797 120.853 106.993 120.155 106.993C119.457 106.993 118.95 106.797 118.539 106.401C118.127 106.005 117.921 105.458 117.921 104.76V95.0708H98.6314V104.76C98.6314 105.458 98.4357 106.005 98.0391 106.401C97.6426 106.797 97.0954 106.993 96.3977 106.993C95.7 106.993 95.1529 106.797 94.7564 106.401V106.406ZM117.916 91.468V86.7212C117.916 83.4295 117.093 80.9055 115.447 79.1443C113.8 77.388 111.406 76.5099 108.274 76.5099C105.142 76.5099 102.747 77.373 101.101 79.0991C99.4546 80.8253 98.6314 83.3643 98.6314 86.7212V91.468H117.921H117.916Z" fill="black"/>
<path d="M126.786 79.5958C126.786 77.6639 127.358 76.1284 128.498 74.9894C129.637 73.8504 131.269 73.2783 133.392 73.2783H142.136C151.035 73.2783 155.488 76.8861 155.488 84.1068C155.488 87.5289 154.459 90.1482 152.401 91.9647C150.343 93.7862 147.346 94.6944 143.421 94.6944L151.974 103.435C152.32 103.782 152.496 104.243 152.496 104.81C152.496 105.443 152.24 105.964 151.738 106.376C151.261 106.757 150.769 106.948 150.267 106.948C149.509 106.948 148.827 106.602 148.224 105.904L137.488 94.7446H131.595V104.67C131.595 105.397 131.374 105.969 130.927 106.381C130.48 106.792 129.898 106.998 129.17 106.998C128.443 106.998 127.865 106.792 127.439 106.381C127.012 105.969 126.796 105.402 126.796 104.67V79.5907L126.786 79.5958ZM142.226 90.9461C145.173 90.9461 147.311 90.4242 148.641 89.3805C149.971 88.3368 150.639 86.5806 150.639 84.1068C150.639 81.633 149.951 79.8065 148.571 78.7176C147.195 77.6238 145.077 77.0768 142.226 77.0768H133.914C133.216 77.0768 132.654 77.3076 132.227 77.7643C131.801 78.2259 131.585 78.8481 131.585 79.6409V90.9461H142.226Z" fill="black"/>
<path d="M165.23 104.86C162.62 103.435 160.592 101.433 159.152 98.8541C157.711 96.275 156.988 93.2894 156.988 89.9023C156.988 86.5153 157.706 83.5297 159.152 80.9506C160.592 78.3714 162.62 76.3693 165.23 74.9442C167.845 73.5192 170.827 72.8066 174.185 72.8066C177.543 72.8066 180.53 73.5192 183.14 74.9442C185.755 76.3693 187.778 78.3714 189.223 80.9506C190.664 83.5297 191.387 86.5153 191.387 89.9023C191.387 93.2894 190.664 96.275 189.223 98.8541C187.783 101.433 185.755 103.435 183.14 104.86C180.525 106.286 177.543 106.998 174.185 106.998C170.827 106.998 167.84 106.286 165.23 104.86ZM180.816 101.704C182.733 100.646 184.229 99.1 185.303 97.0728C186.377 95.0456 186.92 92.6571 186.92 89.9023C186.92 87.1476 186.367 84.6688 185.258 82.6616C184.149 80.6495 182.613 79.1241 180.65 78.0804C178.688 77.0367 176.439 76.5148 173.904 76.5148C171.369 76.5148 169.301 77.0517 167.419 78.1305C165.531 79.2094 164.076 80.7498 163.047 82.762C162.018 84.7741 161.501 87.1576 161.501 89.9124C161.501 92.6672 162.033 95.0607 163.092 97.0828C164.151 99.11 165.642 100.651 167.559 101.714C169.477 102.773 171.685 103.305 174.185 103.305C176.685 103.305 178.893 102.773 180.811 101.714L180.816 101.704Z" fill="black"/>
<path d="M195.136 106.406C194.74 106.01 194.544 105.463 194.544 104.765V83.9615C194.544 80.4792 195.518 77.7495 197.465 75.7674C199.413 73.7904 202.113 72.7969 205.567 72.7969C207.469 72.7969 209.226 73.2736 210.842 74.2219C212.459 75.1703 213.723 76.4699 214.642 78.1158C215.561 76.4398 216.81 75.1302 218.397 74.1968C219.978 73.2635 221.74 72.7969 223.672 72.7969C227.125 72.7969 229.831 73.7854 231.794 75.7674C233.756 77.7444 234.74 80.4792 234.74 83.9615V104.765C234.74 105.463 234.534 106.01 234.123 106.406C233.711 106.803 233.159 106.998 232.461 106.998C231.763 106.998 231.226 106.803 230.845 106.406C230.463 106.01 230.273 105.463 230.273 104.765V83.9615C230.273 81.4627 229.751 79.591 228.707 78.3566C227.663 77.1222 225.936 76.505 223.527 76.505C221.438 76.505 219.797 77.1624 218.607 78.477C217.418 79.7917 216.825 81.6182 216.825 83.9615V104.765C216.825 105.463 216.63 106.01 216.233 106.406C215.837 106.803 215.305 106.998 214.642 106.998C213.944 106.998 213.407 106.803 213.026 106.406C212.644 106.01 212.454 105.463 212.454 104.765V83.9615C212.454 81.6834 211.841 79.872 210.626 78.5222C209.407 77.1774 207.77 76.505 205.707 76.505C203.333 76.505 201.621 77.1323 200.577 78.3817C199.533 79.6311 199.011 81.4928 199.011 83.9615V104.765C199.011 105.463 198.806 106.01 198.394 106.406C197.982 106.803 197.43 106.998 196.732 106.998C196.035 106.998 195.538 106.803 195.141 106.406H195.136Z" fill="black"/>
<path d="M240.392 106.406C239.996 106.01 239.8 105.463 239.8 104.765V86.8617C239.8 82.4611 241.05 79.0188 243.554 76.53C246.054 74.0462 249.508 72.8018 253.91 72.8018C256.821 72.8018 259.351 73.3638 261.489 74.4877C263.627 75.6117 265.259 77.2325 266.383 79.355C267.507 81.4776 268.07 83.9764 268.07 86.8567V104.76C268.07 105.458 267.864 106.005 267.452 106.401C267.041 106.797 266.488 106.993 265.791 106.993C265.093 106.993 264.586 106.797 264.174 106.401C263.763 106.005 263.557 105.458 263.557 104.76V95.0708H244.267V104.76C244.267 105.458 244.071 106.005 243.675 106.401C243.278 106.797 242.731 106.993 242.033 106.993C241.336 106.993 240.789 106.797 240.392 106.401V106.406ZM263.552 91.468V86.7212C263.552 83.4295 262.729 80.9055 261.082 79.1443C259.436 77.388 257.042 76.5099 253.91 76.5099C250.777 76.5099 248.383 77.373 246.737 79.0991C245.09 80.8253 244.267 83.3643 244.267 86.7212V91.468H263.557H263.552Z" fill="black"/>
<path d="M279.132 105.458C276.517 104.429 274.404 102.994 272.787 101.157C272.471 100.746 272.311 100.349 272.311 99.9681C272.311 99.366 272.582 98.8441 273.119 98.4025C273.465 98.1165 273.831 97.976 274.213 97.976C274.785 97.976 275.367 98.2771 275.97 98.8792C277.33 100.274 279.017 101.358 281.029 102.131C283.042 102.909 285.251 103.295 287.655 103.295C290.19 103.295 292.158 102.828 293.568 101.895C294.979 100.962 295.681 99.657 295.681 97.976C295.681 96.4255 294.984 95.166 293.593 94.2026C292.203 93.2392 289.808 92.3912 286.42 91.6636C281.762 90.6199 278.404 89.3052 276.346 87.7196C274.288 86.139 273.259 84.0466 273.259 81.4523C273.259 79.7112 273.781 78.1908 274.825 76.8911C275.869 75.5915 277.36 74.588 279.293 73.8754C281.225 73.1629 283.474 72.8066 286.039 72.8066C288.955 72.8066 291.565 73.3034 293.879 74.3019C296.193 75.3005 297.87 76.6503 298.914 78.3614C299.165 78.7427 299.295 79.1391 299.295 79.5506C299.295 80.1828 298.994 80.7047 298.392 81.1162C298.106 81.3068 297.774 81.4022 297.393 81.4022C297.047 81.4022 296.695 81.3169 296.349 81.1412C296.003 80.9656 295.716 80.7398 295.496 80.4538C294.577 79.1893 293.302 78.2159 291.671 77.5334C290.039 76.851 288.162 76.5098 286.039 76.5098C283.348 76.5098 281.295 76.9313 279.885 77.7693C278.474 78.6072 277.772 79.8366 277.772 81.4523C277.772 82.4358 278.058 83.2788 278.625 83.9914C279.197 84.7039 280.131 85.3361 281.431 85.8931C282.731 86.4451 284.518 86.992 286.797 87.5339C291.58 88.6429 295.019 90.0127 297.107 91.6435C299.195 93.2743 300.244 95.3868 300.244 97.9861C300.244 99.8226 299.727 101.413 298.698 102.758C297.669 104.103 296.203 105.152 294.301 105.894C292.399 106.637 290.185 107.008 287.65 107.008C284.578 107.008 281.732 106.496 279.122 105.463L279.132 105.458Z" fill="black"/>
</svg>
