<svg width="77" height="77" viewBox="0 0 77 77" fill="none" xmlns="http://www.w3.org/2000/svg">
<path d="M38.5 38.5C43.6054 38.5 48.5017 36.4719 52.1118 32.8618C55.7219 29.2517 57.75 24.3554 57.75 19.25C57.75 14.1446 55.7219 9.24827 52.1118 5.6382C48.5017 2.02812 43.6054 0 38.5 0C33.3946 0 28.4983 2.02812 24.8882 5.6382C21.2781 9.24827 19.25 14.1446 19.25 19.25C19.25 24.3554 21.2781 29.2517 24.8882 32.8618C28.4983 36.4719 33.3946 38.5 38.5 38.5ZM51.3333 19.25C51.3333 22.6536 49.9812 25.9178 47.5745 28.3245C45.1678 30.7313 41.9036 32.0833 38.5 32.0833C35.0964 32.0833 31.8322 30.7313 29.4255 28.3245C27.0187 25.9178 25.6667 22.6536 25.6667 19.25C25.6667 15.8464 27.0187 12.5822 29.4255 10.1755C31.8322 7.76874 35.0964 6.41667 38.5 6.41667C41.9036 6.41667 45.1678 7.76874 47.5745 10.1755C49.9812 12.5822 51.3333 15.8464 51.3333 19.25ZM77 70.5833C77 77 70.5833 77 70.5833 77H6.41667C6.41667 77 0 77 0 70.5833C0 64.1667 6.41667 44.9167 38.5 44.9167C70.5833 44.9167 77 64.1667 77 70.5833ZM70.5833 70.5577C70.5769 68.9792 69.5952 64.2308 65.2447 59.8803C61.061 55.6967 53.1878 51.3333 38.5 51.3333C23.8123 51.3333 15.939 55.6967 11.7553 59.8803C7.40483 64.2308 6.4295 68.9792 6.41667 70.5577H70.5833Z" fill="black"/>
</svg>
