<svg width="67" height="67" viewBox="0 0 67 67" fill="none" xmlns="http://www.w3.org/2000/svg">
<path d="M17.8286 43.3077C13.7738 37.7747 11.9578 30.9148 12.7437 24.1003C13.5296 17.2858 16.8595 11.0193 22.0673 6.5546C27.2751 2.08985 33.9766 -0.243918 40.8312 0.0202008C47.6858 0.28432 54.1879 3.12685 59.0366 7.97909C63.8854 12.8313 66.7233 19.3355 66.9825 26.1902C67.2417 33.045 64.9031 39.7449 60.4347 44.9494C55.9662 50.154 49.6974 53.4795 42.8823 54.2605C36.0673 55.0415 29.2086 53.2206 23.6785 49.1619H23.6827C23.5599 49.3294 23.4231 49.4899 23.2723 49.6434L7.15045 65.7653C6.36526 66.551 5.30009 66.9927 4.18928 66.9931C3.07846 66.9935 2.01298 66.5526 1.22723 65.7674C0.44149 64.9822 -0.000160217 63.917 -0.000556946 62.8062C-0.000946045 61.6954 0.439949 60.6299 1.22514 59.8442L17.347 43.7223C17.4966 43.5707 17.6576 43.4349 17.8286 43.3077ZM16.7482 27.211C16.7482 30.2355 17.3439 33.2304 18.5013 36.0247C19.6588 38.819 21.3552 41.3579 23.4939 43.4965C25.6325 45.6352 28.1715 47.3317 30.9658 48.4891C33.76 49.6465 36.7549 50.2422 39.7794 50.2422C42.804 50.2422 45.7988 49.6465 48.5931 48.4891C51.3874 47.3317 53.9263 45.6352 56.065 43.4965C58.2036 41.3579 59.9001 38.819 61.0575 36.0247C62.215 33.2304 62.8107 30.2355 62.8107 27.211C62.8107 21.1027 60.3842 15.2446 56.065 10.9254C51.7458 6.60624 45.8877 4.17974 39.7794 4.17974C33.6712 4.17974 27.8131 6.60624 23.4939 10.9254C19.1747 15.2446 16.7482 21.1027 16.7482 27.211Z" fill="black"/>
</svg>
